<?xml version="1.0" encoding="utf-8"?>
<!-- Generator: Adobe Illustrator 16.0.0, SVG Export Plug-In . SVG Version: 6.00 Build 0)  -->
<!DOCTYPE svg PUBLIC "-//W3C//DTD SVG 1.1//EN" "http://www.w3.org/Graphics/SVG/1.1/DTD/svg11.dtd">
<svg version="1.1" id="Layer_1" xmlns="http://www.w3.org/2000/svg" xmlns:xlink="http://www.w3.org/1999/xlink" x="0px" y="0px"
	 width="16px" height="16px" viewBox="0 0 16 16" enable-background="new 0 0 16 16" xml:space="preserve">
<linearGradient id="SVGID_1_" gradientUnits="userSpaceOnUse" x1="0.1416" y1="8" x2="15.8584" y2="8">
	<stop  offset="0" style="stop-color:#22B575"/>
	<stop  offset="1" style="stop-color:#07987A"/>
</linearGradient>
<path fill-rule="evenodd" clip-rule="evenodd" fill="url(#SVGID_1_)" d="M1.848,1.578c-0.183,0-0.313,0.002-0.444,0
	C1.063,1.573,0.868,1.443,0.859,1.215C0.85,0.98,1.021,0.864,1.391,0.864c3.722,0,7.443,0,11.166,0c0.713,0,1.424,0.004,2.135-0.002
	c0.246-0.002,0.443,0.065,0.449,0.335c0.004,0.262-0.188,0.366-0.428,0.377c-0.17,0.008-0.342,0.001-0.57,0.001
	c0.246,0.554,0.469,1.062,0.693,1.568c0.277,0.62,0.527,1.256,0.842,1.857c0.387,0.742,0.102,1.296-0.508,1.724
	c-0.115,0.082-0.238,0.178-0.369,0.208C14.512,7,14.465,7.167,14.465,7.439c0.012,2.217,0.012,4.432,0,6.651
	c0,0.271,0.076,0.361,0.344,0.338c0.223-0.02,0.447-0.004,0.672-0.002c0.213,0,0.359,0.105,0.377,0.318
	c0.016,0.23-0.135,0.35-0.354,0.383c-0.088,0.014-0.18,0.01-0.271,0.01c-4.82,0-9.641,0-14.461,0c-0.426,0-0.635-0.123-0.63-0.367
	c0.005-0.242,0.194-0.346,0.638-0.346c0.749,0,0.749,0,0.749-0.748c0-1.443,0-4.289,0-5.734c0-0.071-0.001-0.142,0-0.213
	c0.006-0.382,0.124-0.556,0.375-0.555c0.246,0.001,0.369,0.181,0.369,0.561c0.002,1.647,0.007,4.698-0.005,6.344
	C2.266,14.336,2.319,14.436,2.6,14.43c0.945-0.016,1.891-0.012,2.837-0.002c0.235,0.002,0.315-0.061,0.314-0.309
	c-0.01-2.045-0.009-4.088-0.001-6.131C5.75,7.772,5.685,7.685,5.472,7.646c-0.466-0.085-0.89-0.27-1.251-0.591
	c-0.067-0.06-0.225-0.085-0.311-0.05C2.792,7.461,1.736,7.32,0.752,6.659C0.272,6.337-0.074,5.816,0.316,5.017
	c0.512-1.049,0.965-2.125,1.443-3.19C1.788,1.765,1.805,1.698,1.848,1.578z M13.08,7.273c0,0.128,0,0.236,0,0.346
	c0,1.047,0.002,2.094-0.002,3.139c-0.002,0.441-0.131,0.574-0.563,0.576c-1.482,0.004-2.967,0.004-4.452,0
	c-0.408-0.002-0.521-0.125-0.521-0.533c-0.001-0.975,0.001-1.95-0.001-2.926c0-0.114-0.019-0.229-0.031-0.357
	C7.145,7.601,6.82,7.674,6.472,7.753c0,0.093,0,0.183,0,0.272c0,2.023,0.005,4.044-0.007,6.066
	c-0.001,0.277,0.085,0.338,0.346,0.336c2.195-0.008,4.39-0.008,6.585,0.002c0.281,0,0.359-0.078,0.357-0.361
	c-0.012-2.154-0.006-4.307-0.006-6.462c0-0.108,0-0.216,0-0.333C13.508,7.273,13.311,7.273,13.08,7.273z M8.36,4.057
	c0,0.723,0.006,1.444-0.004,2.166C8.352,6.494,8.465,6.677,8.698,6.78c0.837,0.37,1.656,0.333,2.451-0.13
	c0.219-0.128,0.295-0.312,0.24-0.567c-0.311-1.438-0.611-2.878-0.932-4.315c-0.018-0.08-0.178-0.178-0.275-0.182
	C9.693,1.567,9.205,1.594,8.716,1.572C8.442,1.56,8.344,1.634,8.352,1.923C8.374,2.634,8.36,3.346,8.36,4.057z M5.634,1.589
	C5.612,1.642,5.586,1.687,5.575,1.734C5.253,3.189,4.935,4.643,4.612,6.097C4.555,6.353,4.653,6.534,4.869,6.659
	c0.763,0.437,1.554,0.48,2.366,0.158C7.529,6.7,7.659,6.487,7.656,6.155C7.644,4.724,7.651,3.292,7.65,1.861
	c0-0.087-0.013-0.175-0.021-0.272C6.951,1.589,6.294,1.589,5.634,1.589z M4.857,1.579c-0.722,0-1.41-0.006-2.097,0.009
	C2.693,1.589,2.604,1.704,2.567,1.785c-0.543,1.189-1.08,2.38-1.615,3.572C0.801,5.693,0.846,5.867,1.16,6.079
	c0.636,0.431,1.33,0.563,2.087,0.405c0.406-0.085,0.632-0.29,0.712-0.709C4.122,4.93,4.321,4.091,4.503,3.249
	C4.621,2.706,4.734,2.163,4.857,1.579z M11.156,1.579c0.047,0.212,0.086,0.387,0.123,0.564c0.258,1.21,0.518,2.42,0.771,3.631
	c0.063,0.308,0.184,0.561,0.51,0.656c0.844,0.248,1.627,0.117,2.342-0.396c0.221-0.159,0.299-0.361,0.174-0.635
	c-0.553-1.209-1.09-2.423-1.643-3.632c-0.035-0.078-0.135-0.179-0.205-0.18C12.549,1.573,11.871,1.579,11.156,1.579z M12.355,10.578
	c0-0.379,0-0.721,0-1.064c0-0.722-0.006-1.444,0.004-2.166c0.002-0.186-0.064-0.297-0.236-0.329C12.018,7,11.869,6.979,11.805,7.033
	c-0.797,0.658-1.699,0.827-2.689,0.621c-0.288-0.06-0.566-0.166-0.845-0.25c0,1.065,0,2.115,0,3.174
	C9.635,10.578,10.973,10.578,12.355,10.578z"/>
<linearGradient id="SVGID_2_" gradientUnits="userSpaceOnUse" x1="3.9419" y1="11.8965" x2="4.7383" y2="11.8965">
	<stop  offset="0" style="stop-color:#22B575"/>
	<stop  offset="1" style="stop-color:#07987A"/>
</linearGradient>
<path fill-rule="evenodd" clip-rule="evenodd" fill="url(#SVGID_2_)" d="M4.274,12.323c-0.113-0.146-0.291-0.276-0.324-0.438
	c-0.046-0.226,0.122-0.384,0.359-0.414c0.22-0.029,0.475,0.182,0.423,0.386c-0.042,0.168-0.195,0.308-0.299,0.459
	C4.379,12.318,4.327,12.321,4.274,12.323z"/>
<linearGradient id="SVGID_3_" gradientUnits="userSpaceOnUse" x1="7.4058" y1="13.498" x2="13.6826" y2="13.498">
	<stop  offset="0" style="stop-color:#22B575"/>
	<stop  offset="1" style="stop-color:#07987A"/>
</linearGradient>
<path fill-rule="evenodd" clip-rule="evenodd" fill="url(#SVGID_3_)" d="M10.528,13.908c-0.852,0-1.703,0-2.554-0.001
	c-0.358,0-0.571-0.157-0.568-0.414c0.003-0.256,0.213-0.405,0.577-0.405c1.703-0.001,3.406-0.009,5.109,0.011
	c0.184,0.002,0.437,0.117,0.533,0.262c0.181,0.273-0.088,0.549-0.508,0.549c-0.862,0.002-1.726,0.001-2.589,0.001
	C10.528,13.909,10.528,13.909,10.528,13.908z"/>
</svg>
